<svg width="130" height="80" viewBox="0 0 130 80" fill="none" xmlns="http://www.w3.org/2000/svg">
<g clip-path="url(#clip0_157_23)">
<path d="M66.0557 80C64.2467 79.9495 62.4114 79.8353 60.6005 79.6612C58.6018 79.4702 56.5054 79.1932 54.3695 78.8394L54.9237 75.5147C56.9825 75.8554 59.0019 76.1212 60.9236 76.3065C62.6575 76.4731 64.4158 76.5817 66.1497 76.6304L66.0557 80ZM77.8095 79.4421L77.3869 76.0987C81.1908 75.6195 84.8802 74.8333 88.3479 73.7625L89.3492 76.9805C85.6917 78.1112 81.8089 78.9386 77.8095 79.4421ZM42.9558 76.3384C39.257 75.3387 35.5169 74.1519 31.8406 72.8115L33.0034 69.6478C36.5895 70.9564 40.2357 72.1133 43.8405 73.0867L42.9558 76.3384ZM100.254 72.366L98.6064 69.4232C101.911 67.5868 104.928 65.4059 107.573 62.9404L109.881 65.4021C107.037 68.0548 103.797 70.3966 100.254 72.366ZM21.0693 68.3505C17.4588 66.6676 13.9817 64.8443 10.73 62.9273L12.4507 60.0276C15.6085 61.8884 18.9898 63.6612 22.5007 65.2973L21.0693 68.3505ZM117.504 56.2967L114.673 54.4547C116.625 51.4744 118.355 48.1479 119.811 44.5649L122.944 45.8304C121.406 49.6137 119.576 53.1349 117.504 56.2967ZM126.491 34.6489L123.2 33.8739C123.251 33.6586 123.301 33.4414 123.35 33.2262C124.098 29.9576 124.689 26.5338 125.155 22.7561L128.512 23.1679C128.031 27.0598 127.421 30.5941 126.647 33.975C126.596 34.1996 126.544 34.4242 126.491 34.6489ZM129.515 11.6233L126.14 11.4304C126.365 7.50673 126.502 3.51749 126.622 0L130.002 0.116064C129.88 3.65228 129.741 7.66023 129.515 11.6233Z" fill="#ED7800"/>
<path d="M20.1845 51.3827L20.5546 54.7354L3.98243 56.5363L6.99555 72.8789L3.66496 73.4854L0 53.5804L20.1845 51.3827Z" fill="#ED7800"/>
</g>
<defs>
<clipPath id="clip0_157_23">
<rect width="130" height="80" fill="white"/>
</clipPath>
</defs>
</svg>
