<svg width="99" height="106" viewBox="0 0 99 106" fill="none" xmlns="http://www.w3.org/2000/svg">
<g clip-path="url(#clip0_157_35)">
<path d="M44.4935 100.41C42.2738 100.41 40.09 100.29 38.0045 100.058L38.4839 95.7711C40.4112 95.9868 42.432 96.097 44.4935 96.097C47.0945 96.097 49.8368 95.9221 52.6439 95.5795L53.1688 99.8612C50.1892 100.225 47.2694 100.41 44.4935 100.41ZM67.873 96.8206L66.6984 92.6706C71.0492 91.4414 75.6493 89.8576 80.3741 87.9647L81.9802 91.9686C77.114 93.9166 72.3676 95.5507 67.873 96.8206ZM23.2188 95.9365C18.6307 93.7345 14.51 90.6915 10.9694 86.8961L10.8375 86.7523L14.009 83.8291L14.1264 83.9561C17.3002 87.3585 20.9871 90.0829 25.0886 92.05L23.2188 95.9365ZM95.5409 85.8969L93.6376 82.0273L93.8461 81.9242L95.7614 85.7891L95.5409 85.8969ZM3.04918 73.3894C1.53418 69.0262 0.536962 64.0112 0.079106 58.4834L4.3796 58.1288C4.80629 63.2947 5.72919 67.9527 7.12434 71.9733L3.04918 73.3894ZM4.31008 43.7356L0 43.5127L0.0047943 43.4145C0.27807 38.735 0.886946 33.9093 1.86498 28.6619L6.10794 29.4502C5.16347 34.5179 4.57616 39.1687 4.31248 43.6661L4.31008 43.7356ZM9.36567 15.2942L5.19463 14.1872C6.47711 9.36147 7.87225 4.60286 9.21945 0L13.3617 1.21241C12.0193 5.78892 10.6338 10.5188 9.36567 15.2942Z" fill="#ED7800"/>
<path d="M89.7901 106L85.7533 104.469L93.3187 84.5934L72.9333 78.5002L74.1727 74.3669L99 81.79L89.7901 106Z" fill="#ED7800"/>
</g>
<defs>
<clipPath id="clip0_157_35">
<rect width="99" height="106" fill="white"/>
</clipPath>
</defs>
</svg>
