<svg width="164" height="144" viewBox="0 0 164 144" fill="none" xmlns="http://www.w3.org/2000/svg">
<g clip-path="url(#clip0_162_78)">
<path d="M18.4998 14.4303L17.8163 16.9709C20.7776 18.1472 23.8563 19.5236 26.9694 21.0652L27.91 18.6378C24.7129 17.0548 21.5482 15.6392 18.4998 14.4303ZM37.024 23.5497L35.8773 25.8662C38.7633 27.5458 41.6659 29.357 44.5086 31.252L45.8388 29.0497C42.9365 27.1157 39.9701 25.2653 37.024 23.5497ZM54.3303 35.0802L52.8285 37.1595C55.2807 39.0129 57.6884 40.9371 59.9823 42.8785C60.2496 43.1048 60.5173 43.3332 60.7827 43.5616L62.4566 41.6204C62.1847 41.3866 61.9122 41.156 61.6394 40.9232C59.2946 38.9404 56.8354 36.9728 54.3303 35.0802ZM68.2915 50.456C70.7805 52.9096 73.1129 55.4023 75.2237 57.8623L77.2819 56.3062C75.108 53.7722 72.7071 51.2066 70.1478 48.6823L68.2915 50.456ZM81.3601 65.8076C82.9812 68.174 84.4019 70.5293 85.5828 72.8085C85.8324 73.2903 86.0895 73.797 86.3483 74.3146L88.8734 73.4577C88.6076 72.9248 88.3423 72.4018 88.0848 71.9059C86.8407 69.506 85.3482 67.0321 83.6495 64.5516L81.3601 65.8076ZM90.5136 83.304L90.584 83.4606C91.8985 86.4107 93.2562 89.4608 94.7234 92.4207L97.2521 91.5724C95.8169 88.6712 94.4709 85.6516 93.169 82.7309L93.0986 82.5743L90.5136 83.304ZM99.7879 101.369C100.168 101.944 100.558 102.515 100.948 103.066C102.562 105.342 104.398 107.539 106.403 109.598L108.31 107.877C106.432 105.95 104.715 103.892 103.204 101.763C102.836 101.244 102.468 100.705 102.109 100.162L99.7879 101.369ZM115.895 114.373L114.47 116.51C117.316 118.545 120.366 120.36 123.533 121.905L124.453 119.468C121.46 118.009 118.582 116.294 115.895 114.373ZM133.603 123.022L133.207 125.662C136.516 126.637 139.861 127.308 143.148 127.661L142.995 124.91C139.89 124.576 136.731 123.942 133.603 123.022ZM152.261 124.986L152.995 127.742C156.257 127.426 159.387 126.755 162.301 125.746L160.976 123.119C158.25 124.063 155.318 124.692 152.261 124.986Z" fill="#A15200"/>
<path d="M17.5921 26.3437L19.7958 24.9648L10.905 13.1361L22.3766 7.21259L20.7353 4.71905L6.7666 11.9354L17.5921 26.3437Z" fill="#A15200"/>
</g>
<defs>
<clipPath id="clip0_162_78">
<rect width="25" height="192.247" fill="white" transform="matrix(0.646043 -0.763301 -0.763301 -0.646043 146.893 143.952)"/>
</clipPath>
</defs>
</svg>
