<svg width="221" height="119" viewBox="0 0 221 119" fill="none" xmlns="http://www.w3.org/2000/svg">
<g clip-path="url(#clip0_157_29)">
<path d="M84.9227 100.521L84.8853 100.531C84.4944 100.636 84.0948 100.731 83.6965 100.815L82.9789 97.3917C83.3132 97.3222 83.6505 97.2418 83.9797 97.1536L84.0134 97.1445C87.0887 96.3139 90.0591 94.8895 93.0893 92.7912L95.0728 95.6721C91.7107 97.9983 88.3909 99.5847 84.9227 100.521ZM71.051 100.007C66.5978 98.4581 63.022 95.6057 60.981 91.9795L64.0181 90.2657C65.6389 93.1473 68.5397 95.4341 72.1882 96.7034L71.051 100.007ZM104.238 87.5762L101.702 85.1713C102.597 84.2231 103.514 83.2085 104.507 82.0688C106.371 79.9332 107.921 78.0303 109.249 76.2517L112.04 78.3526C110.659 80.2019 109.054 82.1717 107.133 84.3751C106.11 85.5469 105.162 86.5959 104.238 87.5762ZM118.313 67.7944L115.11 66.4057C115.675 65.089 116.152 63.7578 116.527 62.4499C117.176 60.1892 117.52 57.8613 117.55 55.529L121.037 55.582C121.002 58.2255 120.613 60.8633 119.878 63.4228C119.462 64.8723 118.936 66.3416 118.313 67.7944ZM62.8727 79.9904L59.4847 79.1542C60.3629 75.5502 62.2242 71.7772 65.019 67.941L67.8351 70.009C65.3119 73.4746 63.6419 76.8321 62.8727 79.9904ZM198.779 37.1807C195.028 36.5546 191.104 36.0372 187.114 35.6421L187.45 32.1614C191.516 32.5643 195.519 33.0926 199.345 33.7307L198.779 37.1807ZM10.9528 84.3644L7.55834 83.5642C8.47429 79.6301 9.98667 75.7595 12.0504 72.0609L15.0923 73.7747C13.1884 77.1869 11.7959 80.7497 10.9528 84.3644ZM175.362 34.8293C171.473 34.6729 167.509 34.6271 163.579 34.6887L163.518 31.1918C167.511 31.1292 171.54 31.1777 175.494 31.3349L175.362 34.8293ZM75.6077 61.5279L73.2818 58.9179C76.1748 56.323 79.431 53.8562 82.9618 51.5833L84.8482 54.5285C81.4712 56.7018 78.3634 59.0564 75.6077 61.5279ZM151.809 35.1988C147.866 35.4793 143.924 35.8743 140.09 36.3732L139.637 32.9048C143.537 32.3982 147.548 31.9969 151.555 31.7112L151.809 35.1988ZM115.092 44.9195C114.419 43.6935 113.609 42.5725 112.685 41.5849C111.172 39.9681 109.365 38.6638 107.312 37.7052L108.777 34.5353C111.236 35.6829 113.405 37.2505 115.223 39.1937C116.347 40.3936 117.329 41.754 118.144 43.236L115.092 44.9195ZM95.0356 48.877L93.5293 45.7192C97.0158 44.0519 100.757 42.4954 104.647 41.0939L105.831 44.3865C102.05 45.7466 98.4169 47.258 95.0356 48.877ZM128.475 38.2463C124.599 38.9999 120.785 39.8755 117.142 40.8526L117.024 40.8842L116.118 37.5051L116.236 37.4735C119.956 36.4759 123.85 35.5806 127.806 34.8115L128.475 38.2463ZM21.8412 64.5116L19.2711 62.1421C21.9437 59.2261 24.9981 56.4853 28.3526 53.9962L30.4284 56.8101C27.2529 59.1667 24.365 61.7582 21.8412 64.5116ZM40.2842 50.7223L38.688 47.6107C42.102 45.8522 45.7188 44.2666 49.7439 42.7606L50.9677 46.0385C47.0695 47.4942 43.5749 49.027 40.2842 50.7223ZM96.4696 35.5396C93.1095 35.5029 89.3598 35.8826 85.0081 36.7013L84.3608 33.2629C88.9396 32.4014 92.9107 32.0026 96.502 32.0417L96.4696 35.5396ZM73.5375 39.3546C70.8764 40.0178 68.6875 40.5806 66.6525 41.1263C65.0439 41.5577 63.5623 41.969 62.124 42.3849L61.1524 39.0234C62.6131 38.6015 64.1153 38.1846 65.7464 37.7472C67.802 37.196 70.0096 36.6282 72.6913 35.9594L73.5375 39.3546Z" fill="#ED7800"/>
<path d="M195.796 48.883L194.099 45.8226L209.125 37.4751L199.701 23.0328L202.62 21.121L214.097 38.7136L195.796 48.883Z" fill="#ED7800"/>
</g>
<defs>
<clipPath id="clip0_157_29">
<rect width="211.107" height="65.5982" fill="white" transform="translate(0 55.377) rotate(-15.0106)"/>
</clipPath>
</defs>
</svg>
