<svg width="127" height="130" viewBox="0 0 127 130" fill="none" xmlns="http://www.w3.org/2000/svg">
<g clip-path="url(#clip0_157_46)">
<path d="M82.154 103.522C80.4623 104.582 78.7406 105.534 77.0401 106.352L75.3561 102.853C76.928 102.097 78.5208 101.216 80.092 100.231C82.0743 98.9891 84.0807 97.546 86.0563 95.944L88.5035 98.9602C86.4067 100.661 84.2697 102.196 82.154 103.522ZM98.2563 89.618L95.377 87.0126C98.1053 83.9969 100.854 80.5916 103.55 76.891L106.688 79.1788C103.911 82.9891 101.075 86.5026 98.2563 89.618ZM63.801 110.269C59.2514 110.78 54.656 110.426 50.143 109.221L49.9738 109.174L50.9933 105.43L51.1435 105.47C55.1891 106.551 59.3015 106.868 63.3679 106.411L63.801 110.269ZM114.12 68.0701L110.82 66.0266L110.929 65.8483L114.237 67.8825L114.12 68.0701ZM37.6492 102.698C34.4085 100.093 31.2508 96.7426 28.2591 92.7436L31.3671 90.4193C34.1621 94.157 37.0925 97.2702 40.078 99.6716L37.6492 102.698ZM24.4327 79.4707L21.0413 81.359L20.998 81.2818C18.969 77.5809 17.1259 73.6082 15.3625 69.1374L18.9731 67.7126C20.6762 72.0302 22.4521 75.8591 24.4013 79.4165L24.4327 79.4707ZM14.688 55.356L10.9798 56.5033C9.65007 52.2089 8.43828 47.9119 7.2644 43.7566L11.001 42.7034C12.166 46.8363 13.3713 51.1068 14.688 55.356Z" fill="#ED7800"/>
<path d="M119.349 86.1548L115.54 86.9144L111.804 68.1368L93.3541 73.2232L92.3225 69.4777L114.793 63.2846L119.349 86.1548Z" fill="#ED7800"/>
</g>
<defs>
<clipPath id="clip0_157_46">
<rect width="89.0409" height="95.4425" fill="white" transform="translate(0.237915 48.1595) rotate(-32.072)"/>
</clipPath>
</defs>
</svg>
