<svg width="203" height="83" viewBox="0 0 203 83" fill="none" xmlns="http://www.w3.org/2000/svg">
<g clip-path="url(#clip0_157_41)">
<path d="M130.593 7.81857L130.629 7.81427C131.005 7.76939 131.387 7.73432 131.766 7.70839L131.961 10.8607C131.643 10.8811 131.32 10.9108 131.004 10.9486L130.972 10.9525C128.017 11.311 125.078 12.2136 121.992 13.7117L120.554 10.8866C123.978 9.22611 127.261 8.22215 130.593 7.81857ZM143.337 10.0133C147.239 11.9555 150.152 14.9543 151.542 18.4534L148.502 19.6067C147.399 16.8262 145.032 14.4178 141.835 12.826L143.337 10.0133ZM110.98 16.9826L112.993 19.451C112.037 20.1873 111.052 20.9802 109.978 21.8755C107.964 23.5529 106.272 25.0612 104.802 26.4862L102.511 24.2577C104.04 22.7762 105.792 21.2149 107.868 19.484C108.973 18.5637 109.992 17.7439 110.98 16.9826ZM95.272 32.9181L98.0412 34.561C97.339 35.6681 96.7162 36.7993 96.1909 37.9224C95.2822 39.8636 94.6459 41.903 94.299 43.9855L91.0853 43.502C91.4791 41.1417 92.1996 38.8307 93.2288 36.633C93.8107 35.3883 94.4978 34.1398 95.272 32.9181ZM148.155 28.9417L151.17 30.1134C149.866 33.2275 147.63 36.3699 144.524 39.4521L142.205 37.2499C145.01 34.4653 147.012 31.6707 148.155 28.9417ZM16.7526 50.2403C20.1318 51.2696 23.686 52.2231 27.3174 53.0755L26.5312 56.1472C22.8304 55.2783 19.2046 54.3051 15.7574 53.2557L16.7526 50.2403ZM196.715 31.5222L199.742 32.6625C198.357 36.0672 196.431 39.3405 194.019 42.391L191.443 40.4775C193.669 37.6633 195.442 34.6503 196.715 31.5222ZM38.0628 55.2724C41.6344 55.8987 45.29 56.4354 48.9282 56.8717L48.5067 60.0076C44.8094 59.5642 41.0942 59.0169 37.4633 58.3818L38.0628 55.2724ZM133.865 43.8647L135.657 46.4904C132.63 48.4498 129.284 50.2493 125.712 51.8409L124.372 48.9703C127.789 47.4486 130.982 45.7309 133.865 43.8647ZM59.8713 57.8874C63.5519 58.1296 67.2475 58.2693 70.8575 58.3025L70.8014 61.4618C67.1293 61.4272 63.3696 61.2846 59.6285 61.0391L59.8713 57.8874ZM95.1186 53.7837C95.5732 54.9646 96.168 56.0687 96.8869 57.0678C98.0627 58.7032 99.5539 60.096 101.32 61.2103L99.5322 63.8627C97.4175 62.5285 95.6286 60.855 94.2147 58.8893C93.3407 57.6755 92.6193 56.3356 92.0697 54.908L95.1186 53.7837ZM114.188 52.7518L115.148 55.765C111.699 56.8205 108.03 57.745 104.244 58.5121L103.601 55.4187C107.28 54.6749 110.843 53.7773 114.188 52.7518ZM81.8439 58.0796C85.5275 57.8902 89.1698 57.5838 92.6693 57.1655L92.7825 57.1519L93.1574 60.288L93.0442 60.3016C89.471 60.7287 85.7513 61.0426 81.9916 61.2357L81.8439 58.0796ZM183.942 47.9198L185.992 50.3608C183.124 52.6352 179.928 54.7049 176.488 56.5121L174.956 53.7353C178.211 52.0243 181.234 50.0672 183.942 47.9198ZM165.018 57.9485L166.067 60.9316C162.673 62.0778 159.115 63.0438 155.191 63.8876L154.509 60.8023C158.309 59.9876 161.747 59.0536 165.018 57.9485ZM111.039 64.5035C114.138 64.9566 117.654 65.0859 121.786 64.8977L121.914 68.0545C117.566 68.2526 113.843 68.1127 110.531 67.6285L111.039 64.5035ZM132.745 63.9588C135.294 63.6983 137.393 63.4686 139.348 63.2349C140.893 63.0502 142.318 62.8675 143.703 62.6754L144.141 65.804C142.734 65.9987 141.289 66.1837 139.723 66.371C137.748 66.607 135.631 66.8389 133.062 67.1017L132.745 63.9588Z" fill="#ED7800"/>
<path d="M21.1089 40.1451L22.2578 43.095L7.23522 48.6831L13.966 62.781L11.0072 64.1261L2.812 46.9533L21.1089 40.1451Z" fill="#ED7800"/>
</g>
<defs>
<clipPath id="clip0_157_41">
<rect width="197.234" height="59.2221" fill="white" transform="translate(202.869 58.8228) rotate(173.183)"/>
</clipPath>
</defs>
</svg>
