<svg width="34" height="34" viewBox="0 0 34 34" fill="none" xmlns="http://www.w3.org/2000/svg">
<rect width="34" height="34" rx="17" fill="#F6F6F6"/>
<path d="M23 14.1429L20.6261 15.5559C19.3027 16.3436 18.6409 16.7376 17.9401 16.892C17.3199 17.0286 16.6801 17.0286 16.0599 16.892C15.3591 16.7376 14.6974 16.3436 13.3739 15.5559L11 14.1429M13.1333 22H20.8667C21.6134 22 21.9868 22 22.272 21.8443C22.5229 21.7074 22.7269 21.4888 22.8547 21.22C23 20.9144 23 20.5144 23 19.7143V14.2857C23 13.4856 23 13.0856 22.8547 12.78C22.7269 12.5112 22.5229 12.2927 22.272 12.1557C21.9868 12 21.6134 12 20.8667 12H13.1333C12.3866 12 12.0132 12 11.728 12.1557C11.4771 12.2927 11.2732 12.5112 11.1453 12.78C11 13.0856 11 13.4856 11 14.2857V19.7143C11 20.5144 11 20.9144 11.1453 21.22C11.2732 21.4888 11.4771 21.7074 11.728 21.8443C12.0132 22 12.3866 22 13.1333 22Z" stroke="#888888" stroke-linecap="round" stroke-linejoin="round"/>
</svg>
