<svg width="34" height="34" viewBox="0 0 34 34" fill="none" xmlns="http://www.w3.org/2000/svg">
<rect width="34" height="34" rx="17" fill="#F6F6F6"/>
<path fill-rule="evenodd" clip-rule="evenodd" d="M12.2052 11.7923C13.3574 10.6402 15.3017 10.7278 16.1039 12.1652L16.549 12.9627C17.0728 13.9014 16.8496 15.0858 16.0827 15.8621C16.0725 15.8761 16.0183 15.9549 16.0116 16.0926C16.003 16.2684 16.0654 16.6749 16.6952 17.3047C17.3248 17.9344 17.7313 17.997 17.9072 17.9884C18.045 17.9817 18.1239 17.9276 18.1379 17.9173C18.9142 17.1504 20.0986 16.9272 21.0373 17.451L21.8348 17.8962C23.2722 18.6984 23.3598 20.6426 22.2077 21.7948C21.5914 22.411 20.772 22.9586 19.809 22.9952C18.382 23.0493 16.0124 22.6807 13.6658 20.3341C11.3193 17.9876 10.9507 15.6181 11.0048 14.191C11.0414 13.2281 11.5889 12.4086 12.2052 11.7923ZM15.2057 12.6665C14.7948 11.9305 13.6909 11.7614 12.9326 12.5197C12.4009 13.0514 12.0552 13.6383 12.0328 14.23C11.9877 15.42 12.2815 17.495 14.3932 19.6067C16.505 21.7185 18.5799 22.0123 19.77 21.9672C20.3617 21.9448 20.9486 21.5991 21.4803 21.0674C22.2386 20.309 22.0695 19.2052 21.3335 18.7944L20.536 18.3493C20.0399 18.0724 19.343 18.1669 18.8538 18.6561C18.8058 18.7041 18.4999 18.9895 17.9572 19.0159C17.4015 19.0429 16.729 18.7932 15.9679 18.0321C15.2065 17.2708 14.9569 16.5981 14.9841 16.0423C15.0108 15.4995 15.2962 15.1939 15.3439 15.1462C15.8331 14.657 15.9276 13.9601 15.6507 13.464L15.2057 12.6665Z" fill="#888888"/>
</svg>
